HIERARCHY
ROOT Hips
{
  OFFSET -254.933 87.2258 -211.5
  CHANNELS 6 Xposition Yposition Zposition Zrotation Xrotation Yrotation
  JOINT ToSpine
  {
    OFFSET -0.0105055 1.38907 -7.13956
    CHANNELS 3 Zrotation Xrotation Yrotation
    JOINT Spine
    {
      OFFSET 0.0105055 10 1
      CHANNELS 3 Zrotation Xrotation Yrotation
      JOINT Spine1
      {
        OFFSET 0 12 1.60637
        CHANNELS 3 Zrotation Xrotation Yrotation
        JOINT Neck
        {
          OFFSET 0 27 2.26658
          CHANNELS 3 Zrotation Xrotation Yrotation
          JOINT Head
          {
            OFFSET 0 9 2.12705
            CHANNELS 3 Zrotation Xrotation Yrotation
            End Site
            {
              OFFSET 0 11 2
            }
          }
        }
        JOINT LeftShoulder
        {
          OFFSET 8 19.6109 2.86452
          CHANNELS 3 Zrotation Xrotation Yrotation
          JOINT LeftArm
          {
            OFFSET 12 1 0.681055
            CHANNELS 3 Zrotation Xrotation Yrotation
            JOINT LeftForeArm
            {
              OFFSET 19 0 -1.52608
              CHANNELS 3 Zrotation Xrotation Yrotation
              JOINT LeftHand
              {
                OFFSET 23 0 0
                CHANNELS 3 Zrotation Xrotation Yrotation
                End Site
                {
                  OFFSET 10 0 0
                }
              }
            }
          }
        }
        JOINT RightShoulder
        {
          OFFSET -8 19.6109 2.86452
          CHANNELS 3 Zrotation Xrotation Yrotation
          JOINT RightArm
          {
            OFFSET -12 1 0.681055
            CHANNELS 3 Zrotation Xrotation Yrotation
            JOINT RightForeArm
            {
              OFFSET -19 0 -1.52608
              CHANNELS 3 Zrotation Xrotation Yrotation
              JOINT RightHand
              {
                OFFSET -23 0 0
                CHANNELS 3 Zrotation Xrotation Yrotation
                End Site
                {
                  OFFSET -10 0 0
                }
              }
            }
          }
        }
      }
    }
  }
  JOINT LeftUpLeg
  {
    OFFSET 9 -7.17245 0
    CHANNELS 3 Zrotation Xrotation Yrotation
    JOINT LeftLeg
    {
      OFFSET 0 -44.1113 0
      CHANNELS 3 Zrotation Xrotation Yrotation
      JOINT LeftFoot
      {
        OFFSET 0 -36.1829 0
        CHANNELS 3 Zrotation Xrotation Yrotation
        JOINT LeftToeBase
        {
          OFFSET 0 -4.84184 13
          CHANNELS 3 Zrotation Xrotation Yrotation
          End Site
          {
            OFFSET 0 1 6
          }
        }
      }
    }
  }
  JOINT RightUpLeg
  {
    OFFSET -9 -7.17245 0
    CHANNELS 3 Zrotation Xrotation Yrotation
    JOINT RightLeg
    {
      OFFSET 0 -44.0551 0
      CHANNELS 3 Zrotation Xrotation Yrotation
      JOINT RightFoot
      {
        OFFSET 0 -36.1469 0
        CHANNELS 3 Zrotation Xrotation Yrotation
        JOINT RightToeBase
        {
          OFFSET 0 -4.92256 13
          CHANNELS 3 Zrotation Xrotation Yrotation
          End Site
          {
            OFFSET 0 1 6
          }
        }
      }
    }
  }
}
MOTION
Frames:	17
Frame Time:	0.0333333
-17.3613 96.7936 5.88762 -10.1229 2.59716 47.639 0 0 0 5.11138 -1.73819 -7.80149 4.35352 3.6193 -8.85225 3.1112 -11.5434 11.4978 -4.88174 9.36471 12.8253 -23.4513 4.10565 -10.2479 -28.9905 3.54944 -28.317 -53.7196 -21.4411 -74.9798 -10.4691 -0.64686 7.0518 18.8921 4.21536 12.9573 25.8408 9.66342 23.1349 35.4059 -8.81637 77.832 -3.33651 0.0109708 -0.37668 -0.623134 18.39 6.34238 1.84265 19.9389 -15.9742 15.2784 15.2192 -2.05314 1.14246 -15.8403 -0.732979 5.51137 -51.24 3.42379 1.29053e-006 58.4825 -13.6351 -30.2814 -13.8047 -3.75216 4.43631 -17.1794 -6.81112 
-6.89127 95.8402 15.4303 -10.5377 4.95079 46.304 0 0 0 3.63091 -5.38372 -8.03812 5.00479 5.26813 -8.71866 3.27165 -11.2537 12.495 -4.82821 7.08189 13.7494 -25.1045 4.23803 -9.97909 -27.474 2.79971 -29.9507 -52.6943 -22.8567 -73.5132 -8.58379 -0.395993 5.27282 20.676 4.75676 13.9187 22.0818 9.66992 22.2695 34.7812 -9.13735 77.121 -1.84534 0.018885 -1.17258 -3.45988 19.6991 4.4353 0.394691 28.0673 -20.9385 17.8056 9.71682 -1.52567 1.32889 -17.2259 -1.81138 5.29806 -50.5153 3.93892 -6.25359e-009 39.3523 -1.1428 -27.4411 -11.7052 -2.86724 4.32127 -16.5306 -5.85226 
3.09724 94.5822 24.4662 -7.2117 5.71931 45.0646 0 0 0 2.04515 -2.92938 -7.61043 3.99749 3.9427 -7.71483 3.11796 -9.48227 12.3391 -4.29717 5.81743 13.5088 -27.6647 4.33448 -9.28336 -24.3714 3.35489 -32.7647 -54.3655 -26.5444 -72.2371 -10.91 -0.658062 6.88273 21.8039 5.05481 14.309 19.6908 10.2778 23.1656 32.0401 -9.56338 75.133 0.278318 -0.0085249 -3.50885 -7.48895 20.8176 7.13771 -6.52963e-007 41.2554 -24.7481 13.197 10.8729 -1.26149 1.6355 -19.0809 -4.60245 2.5849 -45.5868 1.15186 -2.91387e-008 28.9134 10.2009 -25.5165 -8.96584 -2.03406 4.5225 -18.2032 -10.1162 
12.5549 92.6847 33.411 -5.71225 5.09548 44.0206 0 0 0 4.34748 -0.259385 -5.9645 0.511795 2.31785 -5.55565 2.40803 -8.50341 11.2494 -3.49547 4.75857 12.1507 -27.7927 4.34143 -9.25707 -22.9733 3.82896 -37.3651 -53.2427 -31.3752 -68.7497 -11.5583 -0.636418 6.28194 21.6895 5.26962 15.1241 18.1189 9.20435 23.7448 34.3425 -11.2119 74.1146 -0.435892 0.0110695 -2.90943 -8.01548 17.942 11.0579 3.08426e-007 60.4099 -10.1747 18.2523 10.0396 -1.61682 1.76259 -24.6556 -2.53937 3.6901 -40.813 0.982257 9.00584e-008 29.2781 3.88606 -22.7738 -10.6718 -2.15525 4.25174 -16.4884 -8.31919 
21.1283 92.1026 41.7873 -6.24166 3.36085 44.3592 0 0 0 9.81766 1.76763 -3.88584 -3.64451 2.04328 -3.32513 1.59346 -8.41345 9.36954 -2.61978 4.01081 9.95507 -28.3342 4.4373 -9.3385 -22.2254 2.58198 -42.6768 -48.1725 -34.2097 -63.2898 -12.4583 -0.540177 4.94591 20.0669 5.20144 15.9217 16.9071 6.52995 25.8434 34.6958 -12.7906 72.267 -0.316435 0.00795968 -2.88185 -3.29529 10.0714 13.9583 7.77657e-007 80.5147 8.84584 20.101 0.217696 -0.0385836 1.57382 -20.8091 -2.61622 4.76558 -37.1517 -2.0272 3.62342e-007 34.3283 9.91813 -24.5378 3.97056 0.863792 3.61999 -13.3456 -6.46493 
29.0245 88.6486 49.8004 -5.84264 3.38425 45.3045 0 0 0 12.3032 4.61708 -1.76042 -8.06436 0.357298 -0.460964 0.0141217 -10.7896 7.34563 -2.14827 2.42847 7.50492 -30.1759 4.67188 -9.34347 -21.7849 0.424084 -48.481 -47.3821 -34.999 -62.1772 -14.1572 -0.833315 6.70314 18.5025 5.09948 16.6315 14.2147 2.57685 28.5155 36.142 -14.4181 71.1741 -0.944346 0.0240755 -2.92074 0.499077 -2.43258 14.2433 -180 76.8453 -164.541 22.749 -10.6052 2.13935 1.59626 -19.1626 -4.02674 4.34546 -38.7638 -1.11467 4.31936e-007 56.3713 4.90761 -24.9223 -16.3755 -3.64232 3.72818 -13.8475 -7.95412 
36.1771 88.0873 57.4803 -7.41957 1.6781 48.495 0 0 0 16.0963 6.79732 -0.91289 -10.0471 1.72222 1.03749 -0.407563 -15.7001 5.28432 -1.81317 4.2743 5.34346 -29.4244 4.56133 -9.30105 -23.5589 -0.977767 -53.6115 -41.3669 -34.1267 -57.4988 -12.8635 -0.519621 4.60702 17.372 5.03429 17.2258 11.8084 -0.577909 30.969 42.6741 -18.7229 70.8034 -3.66718 0.04792 -1.4968 5.37202 -20.5038 9.46471 180 63.19 -173.092 34.0542 -13.2458 4.07293 1.51136 -20.7194 -1.616 4.217 -30.7263 -7.42565 -5.30681e-008 58.1643 4.04926 -30.8465 -25.6093 -7.17578 3.92631 -14.7436 -5.66105 
44.8244 87.9928 66.4697 -6.07126 2.35768 52.984 0 0 0 13.9162 7.25834 0.134265 -9.7192 3.1763 2.18637 -0.0713853 -15.7429 2.12834 -1.21373 3.96721 2.28937 -27.9701 4.35642 -9.23643 -27.956 0.562834 -56.2226 -34.7548 -31.619 -52.9255 -15.3309 -0.608484 4.51866 17.4096 5.18801 17.8153 13.0932 -5.51857 28.2972 35.9941 -18.6033 66.2899 1.12326 -0.0255413 -2.60512 1.932 -36.4353 2.35142 180 63.1995 -177.104 34.0703 -17.452 5.38509 1.60918 -22.0114 -2.10454 2.69656 -18.9154 -10.8846 2.47305e-009 55.8106 0.746684 -32.3078 -32.8272 -9.75388 4.3373 -16.5469 -5.3579 
54.6302 89.5574 76.3061 -5.5081 4.97232 55.0509 0 0 0 10.6109 5.16253 2.16984 -10.0368 3.53768 4.35964 2.89377 -14.1243 -0.98023 -2.23478 4.01458 0.151358 -28.2679 4.02995 -8.18896 -24.8231 5.16357 -57.0908 -31.604 -31.0283 -50.0457 -14.7616 -0.253723 1.95852 20.4271 5.82197 17.9252 16.0876 -7.67265 24.9051 36.5895 -19.6167 65.6661 0.737216 -0.0119563 -1.85827 -3.80942 -48.3708 -0.818549 180 75.1547 -175.001 29.5317 -19.0626 5.06797 1.48121 -21.257 -0.459659 1.92731 -6.31281 -13.7903 -3.77023e-008 45.4433 2.54808 -33.0005 -24.5523 -7.376 6.72835 -28.7443 -8.66375 
65.3959 91.8684 87.3668 -2.75515 5.58101 55.3477 0 0 0 8.36986 6.13211 4.49566 -12.2217 2.49567 7.17652 5.80508 -12.0162 -4.19453 -1.79079 4.79632 -2.37948 -26.969 3.73835 -7.75882 -20.8259 11.789 -55.3053 -34.7614 -31.9984 -52.6376 -13.0323 -0.171363 1.50019 24.1555 6.708 18.323 20.0219 -9.39736 18.6664 38.5087 -20.1231 66.6173 -0.382267 -0.000517523 0.155136 -6.28979 -50.0286 0.191754 -1.30179e-006 85.5339 3.66889 28.0993 -18.5187 4.67247 1.53642 -21.0193 -1.75397 3.82097 10.5428 -9.73771 0.0224859 28.3635 0.253828 -24.9936 -5.79932 -1.28638 10.0257 -36.7495 -1.84051 
77.2591 93.6726 98.9095 -2.30408 7.63893 56.1143 0 0 0 6.61622 2.70802 6.96155 -14.1456 2.90464 9.8245 8.29636 -13.5019 -7.19564 -0.747886 8.98353 -5.02618 -23.8133 3.30412 -7.45428 -17.1878 17.3568 -54.7068 -36.9639 -32.1725 -54.7191 -14.4169 -0.239772 1.89557 25.4199 7.33742 19.4331 24.3142 -13.0667 11.663 35.4463 -18.1779 66.3354 0.946001 0.00699783 0.847631 -9.10139 -48.8642 1.40153 2.16282e-007 61.6341 -2.46212 25.2284 -16.6532 3.75188 1.56466 -19.6602 -3.30266 5.29399 22.7142 -7.1555 -0.723523 14.7457 3.63289 -26.0704 13.6793 3.18127 5.30203 -21.8632 -8.7949 
88.6768 93.4456 109.634 -4.22158 9.82683 58.2679 0 0 0 5.81226 -5.03114 9.36428 -13.2495 7.90668 11.7014 4.79018 -14.6076 -9.0229 2.64492 8.92315 -8.37728 -24.3952 3.41075 -7.60235 -10.2738 19.4029 -56.4464 -40.8342 -31.0447 -59.1741 -14.5115 -0.155159 1.21863 22.9773 6.33024 17.8894 29.0778 -11.3852 10.0366 44.6897 -21.2453 69.8818 -5.5218 -0.506789 10.4798 -11.8017 -48.5557 3.226 8.29059e-007 39.7055 -14.5046 17.2246 -10.9662 1.66587 1.49143 -15.6527 -4.18988 7.73599 26.2017 -7.33016 -0.102046 19.2977 6.13268 -27.6241 8.27308 2.03723 5.04152 -20.7645 -9.42758 
98.7551 92.3726 119.156 -7.30848 6.57734 60.6022 0 0 0 10.5076 -6.89534 10.3021 -14.1305 8.79033 11.8535 8.09295 -14.5496 -11.0842 -0.703436 7.69112 -8.78887 -24.8254 3.4487 -7.57739 -10.9924 20.6742 -56.1538 -41.2721 -28.9188 -61.1463 -14.4846 -0.270888 2.1314 24.7596 6.25954 16.5205 29.3515 -8.06945 7.497 46.4666 -20.6012 71.5155 -9.47912 -1.35181 16.1966 -8.71631 -47.5286 7.60636 7.93389e-007 27.4102 -25.7494 15.3408 -8.51471 1.14883 1.11158 -12.673 -2.02721 15.3192 25.5001 -12.501 -2.79033e-007 34.059 11.2617 -26.1324 6.25163 1.45228 5.22836 -21.2503 -8.09264 
109.014 91.2603 128.381 -6.52076 3.70133 64.0444 0 0 0 8.05156 -6.67542 8.10548 -7.82706 10.1565 8.65044 7.19833 -14.4669 -10.7265 -0.690952 6.93226 -8.62067 -28.7076 3.76059 -7.27775 -12.2761 19.3952 -53.5569 -39.4956 -26.2246 -61.8024 -13.6085 -0.394826 3.30811 22.587 6.11616 17.4389 30.1574 -9.67535 3.21611 40.5794 -16.8648 71.2873 -3.66753 -0.325489 10.1399 -9.59371 -42.2283 3.12166 -0.165516 26.0165 -20.1146 12.8173 -7.18454 0.808016 1.00876 -12.3727 -1.37297 18.5896 23.5133 -18.4746 -3.8904e-007 55.8343 8.33316 -19.4243 -1.93142 -0.330596 4.38905 -16.5706 -3.53309 
118.645 91.0971 137.65 -3.22285 5.3775 66.4127 0 0 0 -0.0413066 -3.04707 4.86156 -4.09045 8.57531 5.90235 11.4073 -12.9215 -9.83795 -3.48429 4.83778 -6.27014 -25.4248 3.87971 -8.72836 -18.3855 17.7702 -51.5447 -38.8608 -25.1856 -62.1601 -15.9901 -0.566636 4.03272 23.4995 5.81031 15.8439 29.7091 -12.3763 1.72223 28.6764 -10.0518 72.3014 3.90528 0.0775353 2.27392 -12.0799 -37.0059 4.02617 1.52817e-007 31.2574 -22.81 19.7133 12.6425 -2.2053 1.26004 -15.4578 -2.06949 13.6865 18.1789 -24.1562 1.48502e-006 78.6515 -4.55637 -27.7809 -4.78235 -1.18331 5.11025 -19.6031 -4.0313 
127.417 89.7407 146.509 -1.42336 5.83022 65.6167 0 0 0 -4.89447 1.72701 2.40582 -0.93812 5.24332 2.92186 14.6719 -12.9797 -7.61973 -5.14493 2.67423 -3.25229 -24.4667 3.8206 -8.90051 -19.0219 15.7331 -51.5191 -40.5325 -24.9031 -63.7816 -14.6565 -0.742017 5.76499 25.0929 5.31878 13.3831 30.6652 -14.2147 4.75598 13.854 -3.73152 75.2173 11.6964 -0.382622 -3.73426 -9.16835 -35.9909 5.96822 8.40292e-008 51.9079 -19.4081 26.8338 -10.6024 2.53597 0.0626767 -6.40929 1.9278 7.30948 8.98796 -25.4033 -180 78.2462 159.249 -27.6976 -14.0839 -3.48856 3.82685 -14.3342 -7.70374 
136.282 90.7933 153.627 0.447471 8.51207 62.6127 0 0 0 -8.89321 5.77136 0.29459 0.880365 4.19004 0.0784743 14.1636 -16.5978 -3.76557 -4.22633 4.13732 -0.281966 -23.328 3.80041 -9.28351 -19.7841 13.2522 -48.9457 -46.0564 -25.0479 -67.8024 -15.25 -0.987536 7.36669 23.5437 4.72856 12.2659 33.3005 -9.53319 8.59476 17.0607 -4.0286 77.1058 9.41853 -0.431986 -5.24033 -9.54273 -25.9116 7.02482 8.1826e-007 49.8153 -16.9706 28.3758 -16.6707 4.24263 0.730254 -12.7988 0.95444 -2.91231 -7.00461 -18.8244 180 62.1804 157.328 -32.7394 -19.4125 -5.75259 3.4034 -12.3317 -6.45342 
